Coordinates
version=1
nRows=54
nColumns=12
inDegrees=yes

Units are S.I. units (second, meters, Newtons, ...)
Angles are in degrees

endheader
time	SC_y	SC_z	SC_x	AC_y	AC_z	AC_x	GH_y	GH_z	GH_yy	EL_x	PS_y
       0.0               -49.2          8.066          81.56          57.92         -17.27          6.572         -138.2          11.74          20.49          13.31          37.83
   0.01172               -49.2          8.069          81.55          57.92         -17.27          6.571         -138.1          11.75          20.51          13.32          37.84
   0.02344               -49.2          8.072          81.54          57.92         -17.27           6.57         -138.1          11.76          20.53          13.33          37.84
   0.03515               -49.2          8.075          81.53          57.92         -17.27          6.569         -138.0          11.77          20.56          13.35          37.85
   0.04687               -49.2          8.078          81.52          57.92         -17.27          6.568         -138.0          11.78          20.58          13.36          37.85
   0.05859               -49.2          8.082          81.51          57.93         -17.27          6.566         -137.9          11.79          20.61          13.38          37.86
   0.07031               -49.2          8.085           81.5          57.93         -17.27          6.565         -137.9          11.81          20.64           13.4          37.87
   0.08203               -49.2          8.089          81.49          57.93         -17.27          6.563         -137.8          11.82          20.67          13.42          37.88
   0.09375               -49.2          8.094          81.48          57.93         -17.27          6.561         -137.7          11.83           20.7          13.44          37.89
    0.1055               -49.2          8.098          81.47          57.93         -17.27           6.56         -137.7          11.85          20.74          13.46          37.89
    0.1172               -49.2          8.103          81.45          57.93         -17.27          6.558         -137.6          11.87          20.78          13.48           37.9
    0.1289               -49.2          8.108          81.44          57.94         -17.27          6.556         -137.5          11.88          20.82          13.51          37.91
    0.1406               -49.2          8.114          81.42          57.94         -17.27          6.553         -137.4           11.9          20.86          13.54          37.93
    0.1523               -49.2           8.12          81.41          57.94         -17.28          6.551         -137.3          11.93          20.91          13.57          37.94
    0.1641               -49.2          8.127          81.39          57.94         -17.28          6.548         -137.2          11.95          20.97           13.6          37.95
    0.1758               -49.2          8.134          81.37          57.95         -17.28          6.545         -137.1          11.97          21.02          13.64          37.97
    0.1875               -49.2          8.142          81.34          57.95         -17.28          6.542         -136.9           12.0          21.08          13.67          37.98
    0.1992               -49.2           8.15          81.32          57.95         -17.28          6.539         -136.8          12.03          21.15          13.72           38.0
    0.2109               -49.2          8.159          81.29          57.96         -17.28          6.535         -136.6          12.06          21.23          13.76          38.02
    0.2226               -49.2          8.169          81.26          57.96         -17.28          6.531         -136.5           12.1          21.31          13.81          38.04
    0.2344               -49.2          8.181          81.23          57.97         -17.28          6.527         -136.3          12.14          21.39          13.87          38.06
    0.2461               -49.2          8.193           81.2          57.97         -17.28          6.522         -136.1          12.18          21.49          13.93          38.09
    0.2578               -49.2          8.206          81.16          57.98         -17.28          6.517         -135.8          12.23           21.6          13.99          38.11
    0.2695               -49.2          8.221          81.12          57.98         -17.29          6.511         -135.6          12.28          21.72          14.07          38.14
    0.2812               -49.2          8.238          81.07          57.99         -17.29          6.504         -135.3          12.34          21.85          14.15          38.18
     0.293               -49.2          8.257          81.02           58.0         -17.29          6.497         -135.0           12.4           22.0          14.24          38.21
    0.3047               -49.2          8.278          80.96           58.0         -17.29          6.488         -134.7          12.47          22.16          14.34          38.26
    0.3164               -49.2          8.301          80.89          58.01         -17.29          6.479         -134.3          12.55          22.35          14.46           38.3
    0.3281               -49.2          8.328          80.81          58.02          -17.3          6.469         -133.8          12.65          22.56          14.59          38.36
    0.3398               -49.2          8.358          80.73          58.04          -17.3          6.457         -133.3          12.75           22.8          14.73          38.42
    0.3515               -49.2          8.392          80.63          58.05          -17.3          6.443         -132.7          12.87          23.07           14.9          38.49
    0.3633               -49.2          8.431          80.52          58.07         -17.31          6.427         -132.1          13.01          23.38           15.1          38.57
     0.375               -49.2          8.477          80.39          58.09         -17.31          6.409         -131.3          13.16          23.75          15.32          38.66
    0.3867               -49.2           8.53          80.24          58.11         -17.32          6.388         -130.4          13.35          24.17          15.58          38.76
    0.3984               -49.2          8.592          80.06          58.13         -17.33          6.364         -129.4          13.56          24.66          15.88          38.89
    0.4101              -49.19          8.665          79.85          58.16         -17.33          6.335         -128.2          13.82          25.24          16.24          39.03
    0.4219              -49.19          8.751           79.6           58.2         -17.34            6.3         -126.7          14.12          25.92          16.67          39.21
    0.4336              -49.19          8.855          79.31          58.24         -17.36          6.259         -125.0          14.48          26.75          17.18          39.42
    0.4453              -49.19          8.981          78.95          58.29         -17.37          6.209         -122.9          14.91          27.75          17.79          39.67
     0.457              -49.19          9.135          78.51          58.35         -17.39          6.148         -120.4          15.45          28.96          18.55          39.98
    0.4687              -49.18          9.324          77.97          58.43         -17.41          6.073         -117.2          16.11          30.47          19.48          40.36
    0.4804              -49.18          9.561           77.3          58.52         -17.43          5.979         -113.2          16.93          32.34          20.64          40.84
    0.4922              -49.17          9.859          76.45          58.64         -17.46          5.861         -108.3          17.96          34.71           22.1          41.44
    0.5039              -49.17          10.24          75.37           58.8         -17.51          5.711         -102.0          19.27          37.71          23.96           42.2
    0.5156              -49.16          10.72          73.98          58.99         -17.56          5.519         -93.87          20.95          41.56          26.33          43.17
    0.5273              -49.15          11.34          72.21          59.25         -17.63          5.272         -83.49          23.11          46.49          29.38          44.43
     0.539              -49.13          12.14          69.95          59.57         -17.71          4.957         -70.23          25.87          52.79          33.28          46.02
    0.5508              -49.11          13.14           67.1          59.97         -17.82          4.561         -53.56          29.34          60.72          38.18          48.03
    0.5625              -49.09          14.35          63.63          60.47         -17.96          4.078         -33.25          33.56          70.37          44.15          50.48
    0.5742              -49.07          15.76           59.6          61.04         -18.11          3.519         -9.702          38.46          81.57          51.07          53.32
    0.5859              -49.04          17.29          55.24          61.66         -18.28          2.913          15.79          43.76          93.69          58.57          56.39
    0.5976              -49.01          18.82          50.89          62.27         -18.44          2.307          41.29          49.06          105.8          66.06          59.47
    0.6093              -48.99          20.23          46.86          62.84          -18.6          1.747          64.83          53.96          117.0          72.98          62.31
    0.6211              -48.97          21.45          43.39          63.34         -18.73          1.265          85.15          58.18          126.7          78.95          64.76
